<svg xmlns="http://www.w3.org/2000/svg" xmlns:xlink="http://www.w3.org/1999/xlink" width="500" zoomAndPan="magnify" viewBox="0 0 375 374.999991" height="500" preserveAspectRatio="xMidYMid meet" version="1.0"><defs><g/><clipPath id="ff85335aab"><path d="M 53.949219 101.863281 L 320.949219 101.863281 L 320.949219 368.863281 L 53.949219 368.863281 Z M 53.949219 101.863281 " clip-rule="nonzero"/></clipPath></defs><path fill="#2e5799" d="M 279.953125 235.410156 C 279.953125 238.898438 279.75 242.289062 279.390625 245.6875 C 274.25 291.90625 235.058594 327.863281 187.496094 327.863281 C 147.277344 327.863281 113.019531 302.128906 100.332031 266.226562 L 122.519531 266.226562 C 134.078125 290.519531 158.832031 307.320312 187.496094 307.320312 C 223.710938 307.320312 253.707031 280.507812 258.683594 245.6875 L 95.605469 245.683594 C 95.246094 242.289062 95.042969 238.898438 95.042969 235.410156 C 95.042969 231.917969 95.246094 228.527344 95.605469 225.132812 C 100.746094 178.910156 139.9375 142.953125 187.496094 142.953125 C 227.71875 142.953125 261.976562 168.6875 274.664062 204.589844 L 252.476562 204.589844 C 240.917969 180.300781 216.164062 163.5 187.496094 163.5 C 151.285156 163.496094 121.289062 190.3125 116.308594 225.132812 L 279.390625 225.132812 C 279.75 228.527344 279.953125 231.917969 279.953125 235.410156 " fill-opacity="1" fill-rule="evenodd"/><path fill="#ff5722" d="M 228.539062 204.589844 L 146.457031 204.589844 C 155.808594 192.109375 170.703125 184.046875 187.496094 184.046875 C 204.292969 184.046875 219.1875 192.109375 228.539062 204.589844 " fill-opacity="1" fill-rule="evenodd"/><path fill="#ff5722" d="M 146.457031 266.226562 L 228.535156 266.226562 C 219.1875 278.707031 204.292969 286.773438 187.496094 286.773438 C 170.703125 286.773438 155.808594 278.707031 146.457031 266.226562 " fill-opacity="1" fill-rule="evenodd"/><g clip-path="url(#ff85335aab)"><path fill="#03a9f4" d="M 187.5 101.863281 C 113.738281 101.863281 53.949219 161.652344 53.949219 235.410156 C 53.949219 309.167969 113.738281 368.957031 187.496094 368.957031 C 261.257812 368.957031 321.042969 309.167969 321.042969 235.410156 C 321.042969 161.652344 261.257812 101.863281 187.5 101.863281 M 187.5 348.414062 C 125.089844 348.414062 74.496094 297.816406 74.496094 235.410156 C 74.496094 173.003906 125.089844 122.40625 187.496094 122.40625 C 249.90625 122.40625 300.5 173.003906 300.5 235.410156 C 300.5 297.816406 249.90625 348.414062 187.5 348.414062 Z M 187.5 348.414062 " fill-opacity="1" fill-rule="evenodd"/></g><g fill="#ff5722" fill-opacity="1"><g transform="translate(40.672105, 121.151244)"><g><path d="M 0.109375 -57.28125 L 5.828125 -51.828125 L -16.015625 -28.984375 L -10.3125 -23.515625 L 6.0625 -40.640625 C 7.070312 -41.703125 8.25 -42.421875 9.59375 -42.796875 C 10.9375 -43.171875 12.285156 -43.195312 13.640625 -42.875 C 14.992188 -42.5625 16.191406 -41.90625 17.234375 -40.90625 L 22.953125 -35.453125 C 24.003906 -34.453125 24.71875 -33.28125 25.09375 -31.9375 C 25.476562 -30.59375 25.507812 -29.242188 25.1875 -27.890625 C 24.875 -26.535156 24.210938 -25.328125 23.203125 -24.265625 L 1.359375 -1.421875 L -4.359375 -6.890625 L 17.484375 -29.734375 L 11.765625 -35.1875 L -4.609375 -18.0625 C -5.609375 -17.007812 -6.773438 -16.289062 -8.109375 -15.90625 C -9.453125 -15.53125 -10.800781 -15.5 -12.15625 -15.8125 C -13.519531 -16.132812 -14.726562 -16.796875 -15.78125 -17.796875 L -21.484375 -23.265625 C -22.535156 -24.265625 -23.25 -25.429688 -23.625 -26.765625 C -24.007812 -28.109375 -24.039062 -29.457031 -23.71875 -30.8125 C -23.394531 -32.175781 -22.734375 -33.382812 -21.734375 -34.4375 Z M 0.109375 -57.28125 "/></g></g></g><g fill="#ff5722" fill-opacity="1"><g transform="translate(70.056748, 90.265949)"><g><path d="M 13.3125 -55.71875 L 17.625 -49.078125 L -8.90625 -31.890625 L -4.609375 -25.265625 L 21.921875 -42.453125 L 26.203125 -35.828125 L -0.328125 -18.640625 L 3.984375 -12.015625 L 30.515625 -29.203125 L 34.8125 -22.5625 L 8.28125 -5.375 C 7.070312 -4.582031 5.769531 -4.15625 4.375 -4.09375 C 2.976562 -4.039062 1.65625 -4.328125 0.40625 -4.953125 C -0.84375 -5.578125 -1.859375 -6.5 -2.640625 -7.71875 L -15.53125 -27.59375 C -16.320312 -28.8125 -16.75 -30.117188 -16.8125 -31.515625 C -16.875 -32.910156 -16.59375 -34.226562 -15.96875 -35.46875 C -15.34375 -36.71875 -14.425781 -37.738281 -13.21875 -38.53125 Z M 13.3125 -55.71875 "/></g></g></g><g fill="#ff5722" fill-opacity="1"><g transform="translate(105.774107, 66.993014)"><g><path d="M 39.078125 -13.921875 L 9.296875 -3.3125 C 7.929688 -2.832031 6.5625 -2.722656 5.1875 -2.984375 C 3.820312 -3.242188 2.601562 -3.820312 1.53125 -4.71875 C 0.46875 -5.613281 -0.304688 -6.742188 -0.796875 -8.109375 L -8.75 -30.4375 C -9.238281 -31.800781 -9.347656 -33.164062 -9.078125 -34.53125 C -8.816406 -35.90625 -8.238281 -37.128906 -7.34375 -38.203125 C -6.457031 -39.273438 -5.332031 -40.050781 -3.96875 -40.53125 L 25.8125 -51.140625 L 28.46875 -43.703125 L -1.3125 -33.09375 L 6.640625 -10.765625 L 36.421875 -21.375 Z M 39.078125 -13.921875 "/></g></g></g><g fill="#ff5722" fill-opacity="1"><g transform="translate(145.897136, 52.588073)"><g><path d="M 33.375 -3.671875 L 9.8125 -1.078125 C 8.375 -0.921875 7.015625 -1.128906 5.734375 -1.703125 C 4.460938 -2.273438 3.410156 -3.117188 2.578125 -4.234375 C 1.742188 -5.359375 1.25 -6.640625 1.09375 -8.078125 L -2.375 -39.5 L 5.484375 -40.359375 L 8.953125 -8.9375 L 32.515625 -11.53125 L 29.046875 -42.953125 L 36.90625 -43.8125 L 40.375 -12.390625 C 40.53125 -10.953125 40.320312 -9.59375 39.75 -8.3125 C 39.175781 -7.039062 38.332031 -5.988281 37.21875 -5.15625 C 36.101562 -4.320312 34.820312 -3.828125 33.375 -3.671875 Z M 33.375 -3.671875 "/></g></g></g><g fill="#ff5722" fill-opacity="1"><g transform="translate(188.261096, 47.828307)"><g><path d="M 45.0625 -26.28125 L 44.078125 -18.421875 C 43.898438 -16.992188 43.382812 -15.722656 42.53125 -14.609375 C 41.6875 -13.492188 40.625 -12.660156 39.34375 -12.109375 C 38.070312 -11.566406 36.710938 -11.382812 35.265625 -11.5625 L 27.4375 -12.53125 L 34.296875 -3.71875 L 42.140625 -2.75 L 41.171875 5.09375 L 31.75 3.9375 C 30.644531 3.800781 29.75 3.289062 29.0625 2.40625 L 16.34375 -13.90625 L 11.734375 -14.46875 L 9.796875 1.21875 L 1.953125 0.234375 L 6.8125 -38.984375 L 38.1875 -35.09375 C 39.632812 -34.914062 40.90625 -34.398438 42 -33.546875 C 43.101562 -32.691406 43.929688 -31.625 44.484375 -30.34375 C 45.046875 -29.070312 45.238281 -27.71875 45.0625 -26.28125 Z M 37.21875 -27.25 L 13.6875 -30.15625 L 12.703125 -22.296875 L 36.234375 -19.390625 Z M 37.21875 -27.25 "/></g></g></g><g fill="#ff5722" fill-opacity="1"><g transform="translate(230.580288, 52.970531)"><g><path d="M 38.875 14.453125 L 1.84375 0.6875 L 4.59375 -6.71875 L 19.421875 -1.203125 L 27.6875 -23.421875 L 12.859375 -28.9375 L 15.609375 -36.34375 L 52.640625 -22.578125 L 49.890625 -15.171875 L 35.09375 -20.671875 L 26.828125 1.546875 L 41.625 7.046875 Z M 38.875 14.453125 "/></g></g></g><g fill="#ff5722" fill-opacity="1"><g transform="translate(270.571585, 67.737292)"><g><path d="M 56.453125 -9.8125 L 52.0625 -3.234375 L 38.921875 -12.015625 L 21.359375 14.265625 L 14.78125 9.875 L 32.34375 -16.40625 L 19.203125 -25.1875 L 23.59375 -31.765625 Z M 56.453125 -9.8125 "/></g></g></g><g fill="#ff5722" fill-opacity="1"><g transform="translate(306.077275, 91.331901)"><g><path d="M 40.234375 8.453125 L 51.8125 -2.3125 L 57.1875 3.46875 L 34.046875 24.984375 C 32.984375 25.972656 31.769531 26.617188 30.40625 26.921875 C 29.039062 27.222656 27.691406 27.175781 26.359375 26.78125 C 25.023438 26.382812 23.863281 25.65625 22.875 24.59375 L 1.34375 1.4375 L 7.140625 -3.953125 L 28.671875 19.203125 L 34.453125 13.828125 L 18.296875 -3.53125 C 17.316406 -4.59375 16.671875 -5.800781 16.359375 -7.15625 C 16.054688 -8.519531 16.101562 -9.867188 16.5 -11.203125 C 16.90625 -12.546875 17.640625 -13.710938 18.703125 -14.703125 L 30.28125 -25.46875 L 35.65625 -19.671875 L 24.078125 -8.90625 Z M 40.234375 8.453125 "/></g></g></g><g fill="#ff5722" fill-opacity="1"><g transform="translate(334.959409, 123.818644)"><g/></g></g><g fill="#2e5799" fill-opacity="1"><g transform="translate(97.653619, 122.306639)"><g><path d="M 8.609375 -36.109375 L 11.390625 -31.828125 L -5.78125 -20.671875 L -2.984375 -16.359375 L 9.890625 -24.734375 C 10.679688 -25.242188 11.523438 -25.519531 12.421875 -25.5625 C 13.328125 -25.601562 14.179688 -25.421875 14.984375 -25.015625 C 15.796875 -24.609375 16.457031 -24.007812 16.96875 -23.21875 L 19.75 -18.9375 C 20.257812 -18.15625 20.535156 -17.3125 20.578125 -16.40625 C 20.617188 -15.5 20.4375 -14.640625 20.03125 -13.828125 C 19.632812 -13.023438 19.039062 -12.367188 18.25 -11.859375 L 1.078125 -0.703125 L -1.71875 -5 L 15.453125 -16.15625 L 12.671875 -20.4375 L -0.203125 -12.0625 C -0.992188 -11.550781 -1.835938 -11.273438 -2.734375 -11.234375 C -3.640625 -11.203125 -4.492188 -11.390625 -5.296875 -11.796875 C -6.109375 -12.203125 -6.769531 -12.796875 -7.28125 -13.578125 L -10.078125 -17.890625 C -10.585938 -18.671875 -10.859375 -19.507812 -10.890625 -20.40625 C -10.929688 -21.3125 -10.75 -22.164062 -10.34375 -22.96875 C -9.945312 -23.78125 -9.351562 -24.441406 -8.5625 -24.953125 Z M 8.609375 -36.109375 "/></g></g></g><g fill="#2e5799" fill-opacity="1"><g transform="translate(120.811397, 107.213246)"><g><path d="M 14.4375 -22.390625 L 10.609375 -31.890625 L 15.34375 -33.796875 L 23 -14.8125 C 23.351562 -13.945312 23.460938 -13.066406 23.328125 -12.171875 C 23.191406 -11.273438 22.847656 -10.46875 22.296875 -9.75 C 21.753906 -9.03125 21.050781 -8.5 20.1875 -8.15625 L 1.1875 -0.484375 L -0.734375 -5.234375 L 18.265625 -12.90625 L 16.359375 -17.640625 L 2.109375 -11.890625 C 1.234375 -11.523438 0.351562 -11.410156 -0.53125 -11.546875 C -1.425781 -11.691406 -2.234375 -12.039062 -2.953125 -12.59375 C -3.671875 -13.144531 -4.207031 -13.851562 -4.5625 -14.71875 L -8.390625 -24.21875 L -3.640625 -26.140625 L 0.1875 -16.640625 Z M 14.4375 -22.390625 "/></g></g></g><g fill="#2e5799" fill-opacity="1"><g transform="translate(146.42313, 96.814597)"><g><path d="M 6.28125 -1.21875 L 1.25 -0.25 L -3.140625 -22.875 C -3.273438 -23.5625 -3.140625 -24.195312 -2.734375 -24.78125 C -2.335938 -25.363281 -1.796875 -25.722656 -1.109375 -25.859375 C -0.421875 -25.992188 0.21875 -25.859375 0.8125 -25.453125 L 19.6875 -12.734375 L 16.484375 -29.28125 L 21.5 -30.25 L 25.890625 -7.640625 C 26.023438 -6.941406 25.894531 -6.300781 25.5 -5.71875 C 25.101562 -5.132812 24.554688 -4.773438 23.859375 -4.640625 C 23.179688 -4.503906 22.546875 -4.640625 21.953125 -5.046875 L 3.0625 -17.765625 Z M 6.28125 -1.21875 "/></g></g></g><g fill="#2e5799" fill-opacity="1"><g transform="translate(173.419284, 91.492612)"><g><path d="M 6.40625 -25.59375 L 21.765625 -25.59375 C 22.703125 -25.59375 23.554688 -25.363281 24.328125 -24.90625 C 25.109375 -24.445312 25.726562 -23.828125 26.1875 -23.046875 C 26.644531 -22.273438 26.875 -21.421875 26.875 -20.484375 L 26.875 0 L 21.765625 0 L 21.765625 -10.234375 L 6.40625 -10.234375 L 6.40625 0 L 1.28125 0 L 1.28125 -20.484375 C 1.28125 -21.421875 1.507812 -22.273438 1.96875 -23.046875 C 2.425781 -23.828125 3.039062 -24.445312 3.8125 -24.90625 C 4.59375 -25.363281 5.457031 -25.59375 6.40625 -25.59375 Z M 6.40625 -20.484375 L 6.40625 -15.359375 L 21.765625 -15.359375 L 21.765625 -20.484375 Z M 6.40625 -20.484375 "/></g></g></g><g fill="#2e5799" fill-opacity="1"><g transform="translate(201.190372, 91.442749)"><g><path d="M 26.234375 -20.96875 C 27.160156 -20.789062 27.960938 -20.40625 28.640625 -19.8125 C 29.316406 -19.21875 29.800781 -18.492188 30.09375 -17.640625 C 30.394531 -16.785156 30.457031 -15.898438 30.28125 -14.984375 L 29.3125 -9.953125 C 29.125 -9.035156 28.734375 -8.234375 28.140625 -7.546875 C 27.546875 -6.867188 26.820312 -6.378906 25.96875 -6.078125 C 25.125 -5.773438 24.238281 -5.710938 23.3125 -5.890625 L 8.234375 -8.828125 L 6.28125 1.21875 L 1.25 0.25 L 6.125 -24.875 Z M 9.21875 -13.859375 L 24.296875 -10.921875 L 25.265625 -15.953125 L 10.1875 -18.890625 Z M 9.21875 -13.859375 "/></g></g></g><g fill="#2e5799" fill-opacity="1"><g transform="translate(228.334472, 96.66684)"><g><path d="M 34.5 -13.671875 L 32.59375 -8.9375 L 13.609375 -16.59375 L 11.6875 -11.828125 L 25.9375 -6.078125 C 26.800781 -5.734375 27.503906 -5.203125 28.046875 -4.484375 C 28.597656 -3.773438 28.941406 -2.972656 29.078125 -2.078125 C 29.210938 -1.179688 29.101562 -0.296875 28.75 0.578125 L 26.84375 5.3125 C 26.488281 6.175781 25.953125 6.882812 25.234375 7.4375 C 24.515625 7.988281 23.707031 8.332031 22.8125 8.46875 C 21.925781 8.601562 21.050781 8.5 20.1875 8.15625 L 1.1875 0.484375 L 3.109375 -4.265625 L 22.109375 3.40625 L 24.015625 -1.328125 L 9.765625 -7.078125 C 8.890625 -7.441406 8.175781 -7.976562 7.625 -8.6875 C 7.082031 -9.40625 6.742188 -10.210938 6.609375 -11.109375 C 6.472656 -12.003906 6.582031 -12.882812 6.9375 -13.75 L 8.859375 -18.515625 C 9.210938 -19.378906 9.742188 -20.082031 10.453125 -20.625 C 11.171875 -21.175781 11.972656 -21.519531 12.859375 -21.65625 C 13.753906 -21.800781 14.640625 -21.691406 15.515625 -21.328125 Z M 34.5 -13.671875 "/></g></g></g><g fill="#2e5799" fill-opacity="1"><g transform="translate(253.983553, 106.973023)"><g><path d="M 36.484375 -6.828125 L 33.703125 -2.546875 L 16.53125 -13.703125 L 13.734375 -9.390625 L 30.90625 1.765625 L 28.125 6.0625 L 10.953125 -5.09375 L 8.171875 -0.8125 L 25.34375 10.34375 L 22.546875 14.640625 L 5.375 3.484375 C 4.582031 2.972656 3.984375 2.3125 3.578125 1.5 C 3.179688 0.695312 3.003906 -0.15625 3.046875 -1.0625 C 3.085938 -1.96875 3.363281 -2.8125 3.875 -3.59375 L 12.234375 -16.484375 C 12.742188 -17.265625 13.398438 -17.851562 14.203125 -18.25 C 15.015625 -18.65625 15.867188 -18.835938 16.765625 -18.796875 C 17.671875 -18.765625 18.519531 -18.492188 19.3125 -17.984375 Z M 36.484375 -6.828125 "/></g></g></g></svg>